<mxfile host="app.diagrams.net" modified="2022-06-04T12:13:20.492Z" agent="5.0 (Windows NT 10.0; Win64; x64) AppleWebKit/537.36 (KHTML, like Gecko) Chrome/102.0.5005.63 Safari/537.36 Edg/102.0.1245.30" etag="W67FFcKSmwwjLgPIEKuD" version="19.0.0" type="github">
  <diagram id="v8nLDmN4_eb113j8Iu0C" name="第 1 页">
    <mxGraphModel dx="652" dy="1606" grid="0" gridSize="10" guides="1" tooltips="1" connect="1" arrows="1" fold="1" page="1" pageScale="1" pageWidth="827" pageHeight="1169" math="0" shadow="0">
      <root>
        <mxCell id="0" />
        <mxCell id="1" parent="0" />
        <mxCell id="tAdUC5U9qPsLlMW_5mfW-4" style="edgeStyle=orthogonalEdgeStyle;rounded=0;orthogonalLoop=1;jettySize=auto;html=1;" edge="1" parent="1" source="tAdUC5U9qPsLlMW_5mfW-1" target="tAdUC5U9qPsLlMW_5mfW-3">
          <mxGeometry relative="1" as="geometry" />
        </mxCell>
        <mxCell id="tAdUC5U9qPsLlMW_5mfW-5" value="" style="edgeStyle=orthogonalEdgeStyle;rounded=0;orthogonalLoop=1;jettySize=auto;html=1;" edge="1" parent="1" source="tAdUC5U9qPsLlMW_5mfW-1" target="tAdUC5U9qPsLlMW_5mfW-2">
          <mxGeometry relative="1" as="geometry" />
        </mxCell>
        <mxCell id="tAdUC5U9qPsLlMW_5mfW-1" value="AlarmM上位机软件" style="rounded=1;whiteSpace=wrap;html=1;fillColor=#dae8fc;strokeColor=#6c8ebf;" vertex="1" parent="1">
          <mxGeometry x="354" y="-1030" width="120" height="40" as="geometry" />
        </mxCell>
        <mxCell id="tAdUC5U9qPsLlMW_5mfW-10" style="edgeStyle=orthogonalEdgeStyle;rounded=0;orthogonalLoop=1;jettySize=auto;html=1;exitX=0.75;exitY=1;exitDx=0;exitDy=0;entryX=0.5;entryY=0;entryDx=0;entryDy=0;" edge="1" parent="1" source="tAdUC5U9qPsLlMW_5mfW-2" target="tAdUC5U9qPsLlMW_5mfW-7">
          <mxGeometry relative="1" as="geometry" />
        </mxCell>
        <mxCell id="tAdUC5U9qPsLlMW_5mfW-11" style="edgeStyle=orthogonalEdgeStyle;rounded=0;orthogonalLoop=1;jettySize=auto;html=1;exitX=0.25;exitY=1;exitDx=0;exitDy=0;entryX=0.886;entryY=0.067;entryDx=0;entryDy=0;entryPerimeter=0;" edge="1" parent="1" source="tAdUC5U9qPsLlMW_5mfW-2" target="tAdUC5U9qPsLlMW_5mfW-6">
          <mxGeometry relative="1" as="geometry" />
        </mxCell>
        <mxCell id="tAdUC5U9qPsLlMW_5mfW-14" style="edgeStyle=orthogonalEdgeStyle;rounded=0;orthogonalLoop=1;jettySize=auto;html=1;exitX=0.75;exitY=0;exitDx=0;exitDy=0;entryX=0.25;entryY=1;entryDx=0;entryDy=0;" edge="1" parent="1" source="tAdUC5U9qPsLlMW_5mfW-2" target="tAdUC5U9qPsLlMW_5mfW-12">
          <mxGeometry relative="1" as="geometry" />
        </mxCell>
        <mxCell id="tAdUC5U9qPsLlMW_5mfW-15" style="edgeStyle=orthogonalEdgeStyle;rounded=0;orthogonalLoop=1;jettySize=auto;html=1;exitX=0.25;exitY=0;exitDx=0;exitDy=0;entryX=0.895;entryY=1.05;entryDx=0;entryDy=0;entryPerimeter=0;" edge="1" parent="1" source="tAdUC5U9qPsLlMW_5mfW-2" target="tAdUC5U9qPsLlMW_5mfW-13">
          <mxGeometry relative="1" as="geometry" />
        </mxCell>
        <mxCell id="tAdUC5U9qPsLlMW_5mfW-30" style="edgeStyle=orthogonalEdgeStyle;rounded=0;orthogonalLoop=1;jettySize=auto;html=1;exitX=0;exitY=0.5;exitDx=0;exitDy=0;entryX=1;entryY=0.5;entryDx=0;entryDy=0;" edge="1" parent="1" source="tAdUC5U9qPsLlMW_5mfW-2" target="tAdUC5U9qPsLlMW_5mfW-16">
          <mxGeometry relative="1" as="geometry" />
        </mxCell>
        <mxCell id="tAdUC5U9qPsLlMW_5mfW-2" value="维护模式" style="rounded=1;whiteSpace=wrap;html=1;fillColor=#d5e8d4;strokeColor=#82b366;" vertex="1" parent="1">
          <mxGeometry x="240" y="-1025" width="80" height="30" as="geometry" />
        </mxCell>
        <mxCell id="tAdUC5U9qPsLlMW_5mfW-18" value="" style="edgeStyle=orthogonalEdgeStyle;rounded=0;orthogonalLoop=1;jettySize=auto;html=1;" edge="1" parent="1" source="tAdUC5U9qPsLlMW_5mfW-3" target="tAdUC5U9qPsLlMW_5mfW-17">
          <mxGeometry relative="1" as="geometry" />
        </mxCell>
        <mxCell id="tAdUC5U9qPsLlMW_5mfW-3" value="正常流程" style="rounded=1;whiteSpace=wrap;html=1;fillColor=#d5e8d4;strokeColor=#82b366;" vertex="1" parent="1">
          <mxGeometry x="510" y="-1025" width="80" height="30" as="geometry" />
        </mxCell>
        <mxCell id="tAdUC5U9qPsLlMW_5mfW-6" value="串口调试" style="rounded=0;whiteSpace=wrap;html=1;fillColor=#e1d5e7;strokeColor=#9673a6;" vertex="1" parent="1">
          <mxGeometry x="200" y="-980" width="70" height="30" as="geometry" />
        </mxCell>
        <mxCell id="tAdUC5U9qPsLlMW_5mfW-7" value="舵机调试" style="rounded=0;whiteSpace=wrap;html=1;fillColor=#e1d5e7;strokeColor=#9673a6;" vertex="1" parent="1">
          <mxGeometry x="280" y="-980" width="70" height="30" as="geometry" />
        </mxCell>
        <mxCell id="tAdUC5U9qPsLlMW_5mfW-12" value="颜色传感器调试" style="rounded=0;whiteSpace=wrap;html=1;fillColor=#e1d5e7;strokeColor=#9673a6;" vertex="1" parent="1">
          <mxGeometry x="280" y="-1070" width="100" height="30" as="geometry" />
        </mxCell>
        <mxCell id="tAdUC5U9qPsLlMW_5mfW-13" value="距离传感器调试" style="rounded=0;whiteSpace=wrap;html=1;fillColor=#e1d5e7;strokeColor=#9673a6;" vertex="1" parent="1">
          <mxGeometry x="170" y="-1070" width="100" height="30" as="geometry" />
        </mxCell>
        <mxCell id="tAdUC5U9qPsLlMW_5mfW-16" value="声音调试" style="rounded=0;whiteSpace=wrap;html=1;fillColor=#e1d5e7;strokeColor=#9673a6;" vertex="1" parent="1">
          <mxGeometry x="140" y="-1022.5" width="80" height="25" as="geometry" />
        </mxCell>
        <mxCell id="tAdUC5U9qPsLlMW_5mfW-22" value="" style="edgeStyle=orthogonalEdgeStyle;rounded=0;orthogonalLoop=1;jettySize=auto;html=1;" edge="1" parent="1" source="tAdUC5U9qPsLlMW_5mfW-17" target="tAdUC5U9qPsLlMW_5mfW-21">
          <mxGeometry relative="1" as="geometry" />
        </mxCell>
        <mxCell id="tAdUC5U9qPsLlMW_5mfW-17" value="登陆界面" style="rounded=1;whiteSpace=wrap;html=1;fillColor=#e1d5e7;strokeColor=#9673a6;" vertex="1" parent="1">
          <mxGeometry x="510" y="-980" width="80" height="30" as="geometry" />
        </mxCell>
        <mxCell id="tAdUC5U9qPsLlMW_5mfW-24" value="" style="edgeStyle=orthogonalEdgeStyle;rounded=0;orthogonalLoop=1;jettySize=auto;html=1;" edge="1" parent="1" source="tAdUC5U9qPsLlMW_5mfW-21" target="tAdUC5U9qPsLlMW_5mfW-23">
          <mxGeometry relative="1" as="geometry" />
        </mxCell>
        <mxCell id="tAdUC5U9qPsLlMW_5mfW-21" value="闹钟设定主界面" style="rounded=1;whiteSpace=wrap;html=1;fillColor=#e1d5e7;strokeColor=#9673a6;" vertex="1" parent="1">
          <mxGeometry x="500" y="-910" width="100" height="30" as="geometry" />
        </mxCell>
        <mxCell id="tAdUC5U9qPsLlMW_5mfW-27" style="edgeStyle=orthogonalEdgeStyle;rounded=0;orthogonalLoop=1;jettySize=auto;html=1;entryX=1;entryY=0.5;entryDx=0;entryDy=0;" edge="1" parent="1" source="tAdUC5U9qPsLlMW_5mfW-23" target="tAdUC5U9qPsLlMW_5mfW-21">
          <mxGeometry relative="1" as="geometry">
            <Array as="points">
              <mxPoint x="660" y="-835" />
              <mxPoint x="660" y="-895" />
            </Array>
          </mxGeometry>
        </mxCell>
        <mxCell id="tAdUC5U9qPsLlMW_5mfW-23" value="闹钟响铃页面" style="rounded=1;whiteSpace=wrap;html=1;fillColor=#e1d5e7;strokeColor=#9673a6;" vertex="1" parent="1">
          <mxGeometry x="500" y="-850" width="100" height="30" as="geometry" />
        </mxCell>
        <mxCell id="tAdUC5U9qPsLlMW_5mfW-25" value="到达设定时间" style="text;html=1;strokeColor=none;fillColor=none;align=center;verticalAlign=middle;whiteSpace=wrap;rounded=0;" vertex="1" parent="1">
          <mxGeometry x="560" y="-880" width="80" height="30" as="geometry" />
        </mxCell>
        <mxCell id="tAdUC5U9qPsLlMW_5mfW-28" value="距离传感器确认用户存在&lt;br&gt;颜色传感器确认用户身份" style="text;html=1;strokeColor=none;fillColor=none;align=center;verticalAlign=middle;whiteSpace=wrap;rounded=0;" vertex="1" parent="1">
          <mxGeometry x="404" y="-948" width="150" height="30" as="geometry" />
        </mxCell>
      </root>
    </mxGraphModel>
  </diagram>
</mxfile>
